# xmcd
#
# Track frame offsets:
#	150
#	14345
#	28400
#	40773
#	50363
#	63153
#	73393
#	83045
#	93895
#	108503
#	121940
#	133948
#	142160
#	151018
#	166143
#	179098
#	195038
#	207463
#	220538
#	233790
#	248933
#	260433
#	273358
#	286938
#	299213
#
# Disc length: 4134 seconds
#
# Revision: 1
# Processed by: cddbd v1.5.2PL0 Copyright (c) Steve Scherf et al.
# Submitted via: EZCDAudioConverter 7.0.8.1
#
DISCID=77102419
DTITLE=Various Artist - A Sentimental Journey Through The 50s
DYEAR=1995
DGENRE=blues
TTITLE0=Tony Brent - Nina Never Knew
TTITLE1=The Beverly Sisters - Undecided
TTITLE2=Shelly Moore - When You Lose The One You Love
TTITLE3=The Coronets - The Finger Of Suspicion Points At You
TTITLE4=Jean Campbell And The Peter Knight Singers - Only Yesterday
TTITLE5=Pearl Carr And Teddy Johnson - How Wonderful To Know
TTITLE6=Russ Conway - Roulette
TTITLE7=Alma Cogan - The Moon Is Blue
TTITLE8=David Hughes - I'm Yours
TTITLE9=Alma Warren - Now And Forever
TTITLE10=Ronnie Harris - Hold My Hand
TTITLE11=Pearl Carr And Teddy Johnson - Sing Little Birdie
TTITLE12=Eve Boswell - The Gypsy In My Soul
TTITLE13=Alan Dean - So Deep My Love
TTITLE14=Jill Day - Holiday Affair
TTITLE15=Edmund Hockridge - Hey There
TTITLE16=Eddie Calvert - Donna
TTITLE17=Marion Keene - It's Not For Me To Say
TTITLE18=Jill Day - Cinco Robles
TTITLE19=Edmund Hockridge - Just Say I Love Her
TTITLE20=Sheila Buxton And Ronnie Harris - Long Long Ago
TTITLE21=Tony Brent - The Way I Feel
TTITLE22=Rose Brennan - If You Love Me
TTITLE23=Dennis Lotis - I May Never Pass This Way Again
TTITLE24=Jill Day - Give Her My Love When You Meet Her
EXTD=
EXTT0=
EXTT1=
EXTT2=
EXTT3=
EXTT4=
EXTT5=
EXTT6=
EXTT7=
EXTT8=
EXTT9=
EXTT10=
EXTT11=
EXTT12=
EXTT13=
EXTT14=
EXTT15=
EXTT16=
EXTT17=
EXTT18=
EXTT19=
EXTT20=
EXTT21=
EXTT22=
EXTT23=
EXTT24=
PLAYORDER=
